<svg xmlns="http://www.w3.org/2000/svg" viewBox="0 0 780 220" role="img" aria-labelledby="title desc">
  <title id="title">Atlas Forge</title>
  <desc id="desc">Atlas Forge geometric mark and wordmark.</desc>
  <defs>
    <linearGradient id="g" x1="20" y1="15" x2="190" y2="205" gradientUnits="userSpaceOnUse">
      <stop stop-color="#FFFFFF"/><stop offset=".5" stop-color="#78CBFF"/><stop offset="1" stop-color="#3977FF"/>
    </linearGradient>
  </defs>
  <g transform="translate(4 2) scale(.82)">
    <path fill="url(#g)" d="M128 22 226 220h-48l-21-45H99l-21 45H30L128 22Zm0 85-18 39h36l-18-39Z"/>
    <path d="M22 150c13 29 58 48 112 43 56-5 98-30 100-61 2-22-19-39-53-48" fill="none" stroke="#EAF7FF" stroke-width="13" stroke-linecap="round"/>
    <path d="M25 150c18 20 61 31 108 24 50-7 88-26 101-48" fill="none" stroke="#44B8FF" stroke-width="5" stroke-linecap="round"/>
  </g>
  <text x="235" y="118" fill="#F8FBFF" font-family="Arial, Helvetica, sans-serif" font-size="78" font-weight="700" letter-spacing="8">ATLAS</text>
  <text x="240" y="174" fill="#62BFFF" font-family="Arial, Helvetica, sans-serif" font-size="36" font-weight="500" letter-spacing="18">FORGE</text>
</svg>
